<svg xmlns="http://www.w3.org/2000/svg" xmlns:xlink="http://www.w3.org/1999/xlink" width="500" zoomAndPan="magnify" viewBox="0 0 375 374.999991" height="500" preserveAspectRatio="xMidYMid meet" version="1.2"><defs><clipPath id="9fc0c69adf"><path d="M 28.601562 153.652344 L 83.808594 153.652344 L 83.808594 192.695312 L 28.601562 192.695312 Z M 28.601562 153.652344 "/></clipPath><clipPath id="eca6afe691"><path d="M 65.410156 191.105469 C 62.59375 192.066406 59.367188 192.695312 56.214844 192.695312 C 53.058594 192.695312 50.023438 192.15625 47.222656 191.195312 C 47.164062 191.164062 47.105469 191.164062 47.042969 191.136719 C 36.535156 187.300781 28.796875 177.179688 28.648438 165.984375 L 28.648438 153.652344 L 83.808594 153.652344 L 83.808594 165.972656 C 83.660156 177.238281 76.039062 187.363281 65.410156 191.105469 Z M 65.410156 191.105469 "/></clipPath><clipPath id="bd52a9811b"><path d="M 41 151.964844 L 71.429688 151.964844 L 71.429688 181.3125 L 41 181.3125 Z M 41 151.964844 "/></clipPath><clipPath id="486ac61b72"><path d="M 61.296875 180.4375 C 59.742188 180.96875 57.964844 181.3125 56.226562 181.3125 C 54.488281 181.3125 52.816406 181.015625 51.273438 180.488281 C 51.242188 180.472656 51.210938 180.472656 51.175781 180.457031 C 45.386719 178.34375 41.125 172.765625 41.042969 166.425781 L 41.042969 151.964844 L 71.429688 151.964844 L 71.429688 166.414062 C 71.347656 172.800781 67.148438 178.375 61.296875 180.4375 Z M 61.296875 180.4375 "/></clipPath><clipPath id="5f0c41649f"><path d="M 28.660156 152.8125 L 56.238281 152.8125 L 56.238281 194.859375 L 28.660156 194.859375 Z M 28.660156 152.8125 "/></clipPath><clipPath id="6eb39917b4"><path d="M 28.660156 181.320312 L 83.820312 181.320312 L 83.820312 221.320312 L 28.660156 221.320312 Z M 28.660156 181.320312 "/></clipPath><clipPath id="8480128dbb"><path d="M 47.054688 182.90625 C 49.875 181.949219 53.097656 181.320312 56.253906 181.320312 C 59.410156 181.320312 62.445312 181.859375 65.242188 182.816406 C 65.300781 182.847656 65.363281 182.847656 65.421875 182.875 C 75.929688 186.710938 83.667969 196.835938 83.816406 208.050781 L 83.816406 221.320312 L 28.660156 221.320312 L 28.660156 208.0625 C 28.808594 196.773438 36.429688 186.652344 47.054688 182.90625 Z M 47.054688 182.90625 "/></clipPath><clipPath id="168c9373f6"><path d="M 41.042969 193.660156 L 71.445312 193.660156 L 71.445312 223.03125 L 41.042969 223.03125 Z M 41.042969 193.660156 "/></clipPath><clipPath id="8eb29315e6"><path d="M 51.179688 194.535156 C 52.730469 194.007812 54.507812 193.660156 56.246094 193.660156 C 57.984375 193.660156 59.65625 193.957031 61.199219 194.484375 C 61.230469 194.503906 61.265625 194.503906 61.296875 194.519531 C 67.085938 196.632812 71.351562 202.207031 71.433594 208.550781 L 71.433594 223.03125 L 41.042969 223.03125 L 41.042969 208.5625 C 41.125 202.175781 45.324219 196.597656 51.179688 194.535156 Z M 51.179688 194.535156 "/></clipPath><clipPath id="0037fe32c3"><path d="M 24.609375 181.320312 L 56.238281 181.320312 L 56.238281 223.03125 L 24.609375 223.03125 Z M 24.609375 181.320312 "/></clipPath><clipPath id="369eb52e2b"><path d="M 44.605469 153.648438 L 56.992188 153.648438 L 56.992188 221.308594 L 44.605469 221.308594 Z M 44.605469 153.648438 "/></clipPath><clipPath id="e3d0305ed3"><path d="M 138.210938 153.441406 L 193.371094 153.441406 L 193.371094 221.3125 L 138.210938 221.3125 Z M 138.210938 153.441406 "/></clipPath><clipPath id="3aca04c7b8"><path d="M 174.972656 219.726562 C 172.15625 220.683594 168.929688 221.3125 165.777344 221.3125 C 162.621094 221.3125 159.585938 220.773438 156.785156 219.816406 C 156.726562 219.785156 156.667969 219.785156 156.605469 219.753906 C 146.097656 215.921875 138.359375 205.796875 138.210938 193.964844 L 138.210938 153.652344 L 193.371094 153.652344 L 193.371094 193.9375 C 193.222656 205.855469 185.601562 215.980469 174.972656 219.726562 Z M 174.972656 219.726562 "/></clipPath><clipPath id="11c5f2e070"><path d="M 150.605469 151.871094 L 180.992188 151.871094 L 180.992188 208.96875 L 150.605469 208.96875 Z M 150.605469 151.871094 "/></clipPath><clipPath id="b0d50b0b78"><path d="M 170.859375 208.09375 C 169.304688 208.625 167.527344 208.96875 165.789062 208.96875 C 164.050781 208.96875 162.378906 208.671875 160.835938 208.144531 C 160.804688 208.128906 160.773438 208.128906 160.738281 208.113281 C 154.949219 206 150.6875 200.421875 150.605469 193.464844 L 150.605469 151.960938 L 180.992188 151.960938 L 180.992188 193.433594 C 180.910156 200.457031 176.710938 206.03125 170.859375 208.09375 Z M 170.859375 208.09375 "/></clipPath><clipPath id="6c995daf24"><path d="M 138.222656 151.96875 L 165.800781 151.96875 L 165.800781 221.320312 L 138.222656 221.320312 Z M 138.222656 151.96875 "/></clipPath><clipPath id="996143e59d"><path d="M 97.351562 153.441406 L 152.511719 153.441406 L 152.511719 221.3125 L 97.351562 221.3125 Z M 97.351562 153.441406 "/></clipPath><clipPath id="7929d583be"><path d="M 134.113281 219.722656 C 131.296875 220.683594 128.074219 221.3125 124.917969 221.3125 C 121.761719 221.3125 118.726562 220.773438 115.925781 219.8125 C 115.867188 219.78125 115.808594 219.78125 115.75 219.753906 C 105.242188 215.917969 97.5 205.796875 97.351562 193.964844 L 97.351562 153.648438 L 152.511719 153.648438 L 152.511719 193.933594 C 152.363281 205.855469 144.742188 215.980469 134.113281 219.722656 Z M 134.113281 219.722656 "/></clipPath><clipPath id="0288fe4358"><path d="M 109.746094 151.871094 L 140.132812 151.871094 L 140.132812 208.96875 L 109.746094 208.96875 Z M 109.746094 151.871094 "/></clipPath><clipPath id="a64e168c28"><path d="M 130 208.09375 C 128.445312 208.621094 126.671875 208.96875 124.933594 208.96875 C 123.191406 208.96875 121.519531 208.671875 119.980469 208.144531 C 119.945312 208.125 119.914062 208.125 119.878906 208.109375 C 114.089844 205.996094 109.828125 200.421875 109.746094 193.464844 L 109.746094 151.957031 L 140.132812 151.957031 L 140.132812 193.433594 C 140.050781 200.453125 135.855469 206.03125 130 208.09375 Z M 130 208.09375 "/></clipPath><clipPath id="612591c6b3"><path d="M 206.925781 153.660156 L 262.085938 153.660156 L 262.085938 221.53125 L 206.925781 221.53125 Z M 206.925781 153.660156 "/></clipPath><clipPath id="08c1800b8a"><path d="M 225.320312 155.246094 C 228.140625 154.289062 231.363281 153.660156 234.519531 153.660156 C 237.675781 153.660156 240.710938 154.199219 243.507812 155.15625 C 243.570312 155.1875 243.628906 155.1875 243.6875 155.21875 C 254.195312 159.050781 261.933594 169.175781 262.085938 181.007812 L 262.085938 221.320312 L 206.925781 221.320312 L 206.925781 181.035156 C 207.074219 169.117188 214.695312 158.992188 225.320312 155.246094 Z M 225.320312 155.246094 "/></clipPath><clipPath id="63b3790b97"><path d="M 219.308594 166 L 249.699219 166 L 249.699219 223 L 219.308594 223 Z M 219.308594 166 "/></clipPath><clipPath id="d7d3694edc"><path d="M 229.445312 166.875 C 231 166.347656 232.773438 166 234.511719 166 C 236.25 166 237.925781 166.300781 239.464844 166.828125 C 239.5 166.84375 239.53125 166.84375 239.5625 166.859375 C 245.351562 168.972656 249.617188 174.550781 249.699219 181.507812 L 249.699219 223.03125 L 219.308594 223.03125 L 219.308594 181.539062 C 219.390625 174.515625 223.589844 168.9375 229.445312 166.875 Z M 229.445312 166.875 "/></clipPath><clipPath id="fc9fef48fb"><path d="M 275.617188 153.441406 L 330.777344 153.441406 L 330.777344 221.3125 L 275.617188 221.3125 Z M 275.617188 153.441406 "/></clipPath><clipPath id="052f445214"><path d="M 312.382812 219.726562 C 309.5625 220.683594 306.339844 221.3125 303.183594 221.3125 C 300.027344 221.3125 296.992188 220.773438 294.195312 219.816406 C 294.132812 219.785156 294.074219 219.785156 294.015625 219.753906 C 283.507812 215.921875 275.769531 205.796875 275.617188 193.964844 L 275.617188 153.652344 L 330.777344 153.652344 L 330.777344 193.9375 C 330.628906 205.855469 323.007812 215.980469 312.382812 219.726562 Z M 312.382812 219.726562 "/></clipPath><clipPath id="759cc3050e"><path d="M 288.011719 151.871094 L 318.402344 151.871094 L 318.402344 208.96875 L 288.011719 208.96875 Z M 288.011719 151.871094 "/></clipPath><clipPath id="6de66982b2"><path d="M 308.265625 208.09375 C 306.710938 208.625 304.9375 208.96875 303.199219 208.96875 C 301.460938 208.96875 299.785156 208.671875 298.246094 208.144531 C 298.210938 208.128906 298.179688 208.128906 298.148438 208.113281 C 292.359375 206 288.09375 200.421875 288.011719 193.464844 L 288.011719 151.960938 L 318.402344 151.960938 L 318.402344 193.433594 C 318.320312 200.457031 314.121094 206.03125 308.265625 208.09375 Z M 308.265625 208.09375 "/></clipPath><clipPath id="3d681a7738"><path d="M 304.613281 151.96875 L 333.613281 151.96875 L 333.613281 221.320312 L 304.613281 221.320312 Z M 304.613281 151.96875 "/></clipPath><clipPath id="95baf15871"><path d="M 317.457031 153.652344 L 329.839844 153.652344 L 329.839844 221.3125 L 317.457031 221.3125 Z M 317.457031 153.652344 "/></clipPath><clipPath id="4dd1e1fe13"><path d="M 0 151.96875 L 37.625 151.96875 L 37.625 223.03125 L 0 223.03125 Z M 0 151.96875 "/></clipPath><clipPath id="88bc4db1a8"><path d="M 337.375 151.113281 L 375 151.113281 L 375 222.175781 L 337.375 222.175781 Z M 337.375 151.113281 "/></clipPath><clipPath id="aa77f66e04"><path d="M 229.378906 180.359375 L 239.628906 180.359375 L 239.628906 192.972656 L 229.378906 192.972656 Z M 229.378906 180.359375 "/></clipPath><clipPath id="a704ff3778"><path d="M 232.796875 180.652344 C 233.320312 180.476562 233.921875 180.359375 234.507812 180.359375 C 235.09375 180.359375 235.65625 180.460938 236.179688 180.636719 C 236.1875 180.644531 236.199219 180.644531 236.210938 180.648438 C 238.164062 181.359375 239.601562 183.242188 239.628906 185.441406 L 239.628906 192.933594 L 229.378906 192.933594 L 229.378906 185.445312 C 229.40625 183.230469 230.824219 181.351562 232.796875 180.652344 Z M 232.796875 180.652344 "/></clipPath></defs><g id="315792066a"><rect x="0" width="375" y="0" height="374.999991" style="fill:#ffffff;fill-opacity:1;stroke:none;"/><rect x="0" width="375" y="0" height="374.999991" style="fill:#2b5f56;fill-opacity:1;stroke:none;"/><g clip-rule="nonzero" clip-path="url(#9fc0c69adf)"><g clip-rule="nonzero" clip-path="url(#eca6afe691)"><path style=" stroke:none;fill-rule:nonzero;fill:#f2ddc7;fill-opacity:1;" d="M 83.808594 192.695312 L 28.601562 192.695312 L 28.601562 153.652344 L 83.808594 153.652344 Z M 83.808594 192.695312 "/></g></g><g clip-rule="nonzero" clip-path="url(#bd52a9811b)"><g clip-rule="nonzero" clip-path="url(#486ac61b72)"><path style=" stroke:none;fill-rule:nonzero;fill:#2b5f56;fill-opacity:1;" d="M 71.429688 181.3125 L 41.050781 181.3125 L 41.050781 151.964844 L 71.429688 151.964844 Z M 71.429688 181.3125 "/></g></g><g clip-rule="nonzero" clip-path="url(#5f0c41649f)"><path style=" stroke:none;fill-rule:nonzero;fill:#2b5f56;fill-opacity:1;" d="M 28.660156 152.8125 L 56.238281 152.8125 L 56.238281 194.828125 L 28.660156 194.828125 Z M 28.660156 152.8125 "/></g><g clip-rule="nonzero" clip-path="url(#6eb39917b4)"><g clip-rule="nonzero" clip-path="url(#8480128dbb)"><path style=" stroke:none;fill-rule:nonzero;fill:#f2ddc7;fill-opacity:1;" d="M 28.660156 181.320312 L 83.820312 181.320312 L 83.820312 221.320312 L 28.660156 221.320312 Z M 28.660156 181.320312 "/></g></g><g clip-rule="nonzero" clip-path="url(#168c9373f6)"><g clip-rule="nonzero" clip-path="url(#8eb29315e6)"><path style=" stroke:none;fill-rule:nonzero;fill:#2b5f56;fill-opacity:1;" d="M 41.042969 193.660156 L 71.445312 193.660156 L 71.445312 223.03125 L 41.042969 223.03125 Z M 41.042969 193.660156 "/></g></g><g clip-rule="nonzero" clip-path="url(#0037fe32c3)"><path style=" stroke:none;fill-rule:nonzero;fill:#2b5f56;fill-opacity:1;" d="M 24.609375 181.320312 L 56.238281 181.320312 L 56.238281 223.078125 L 24.609375 223.078125 Z M 24.609375 181.320312 "/></g><g clip-rule="nonzero" clip-path="url(#369eb52e2b)"><path style=" stroke:none;fill-rule:nonzero;fill:#f2ddc7;fill-opacity:1;" d="M 44.605469 221.308594 L 44.605469 153.628906 L 56.992188 153.628906 L 56.992188 221.308594 Z M 44.605469 221.308594 "/></g><g clip-rule="nonzero" clip-path="url(#e3d0305ed3)"><g clip-rule="nonzero" clip-path="url(#3aca04c7b8)"><path style=" stroke:none;fill-rule:nonzero;fill:#f2ddc7;fill-opacity:1;" d="M 193.371094 221.3125 L 138.210938 221.3125 L 138.210938 153.65625 L 193.371094 153.65625 Z M 193.371094 221.3125 "/></g></g><g clip-rule="nonzero" clip-path="url(#11c5f2e070)"><g clip-rule="nonzero" clip-path="url(#b0d50b0b78)"><path style=" stroke:none;fill-rule:nonzero;fill:#2b5f56;fill-opacity:1;" d="M 180.992188 208.96875 L 150.605469 208.96875 L 150.605469 151.992188 L 180.992188 151.992188 Z M 180.992188 208.96875 "/></g></g><g clip-rule="nonzero" clip-path="url(#6c995daf24)"><path style=" stroke:none;fill-rule:nonzero;fill:#2b5f56;fill-opacity:1;" d="M 138.222656 151.96875 L 165.800781 151.96875 L 165.800781 221.347656 L 138.222656 221.347656 Z M 138.222656 151.96875 "/></g><g clip-rule="nonzero" clip-path="url(#996143e59d)"><g clip-rule="nonzero" clip-path="url(#7929d583be)"><path style=" stroke:none;fill-rule:nonzero;fill:#f2ddc7;fill-opacity:1;" d="M 152.511719 221.3125 L 97.351562 221.3125 L 97.351562 153.65625 L 152.511719 153.65625 Z M 152.511719 221.3125 "/></g></g><g clip-rule="nonzero" clip-path="url(#0288fe4358)"><g clip-rule="nonzero" clip-path="url(#a64e168c28)"><path style=" stroke:none;fill-rule:nonzero;fill:#2b5f56;fill-opacity:1;" d="M 140.132812 208.96875 L 109.746094 208.96875 L 109.746094 151.988281 L 140.132812 151.988281 Z M 140.132812 208.96875 "/></g></g><g clip-rule="nonzero" clip-path="url(#612591c6b3)"><g clip-rule="nonzero" clip-path="url(#08c1800b8a)"><path style=" stroke:none;fill-rule:nonzero;fill:#f2ddc7;fill-opacity:1;" d="M 206.925781 153.660156 L 262.085938 153.660156 L 262.085938 221.316406 L 206.925781 221.316406 Z M 206.925781 153.660156 "/></g></g><g clip-rule="nonzero" clip-path="url(#63b3790b97)"><g clip-rule="nonzero" clip-path="url(#d7d3694edc)"><path style=" stroke:none;fill-rule:nonzero;fill:#2b5f56;fill-opacity:1;" d="M 219.308594 166 L 249.699219 166 L 249.699219 222.980469 L 219.308594 222.980469 Z M 219.308594 166 "/></g></g><g clip-rule="nonzero" clip-path="url(#fc9fef48fb)"><g clip-rule="nonzero" clip-path="url(#052f445214)"><path style=" stroke:none;fill-rule:nonzero;fill:#f2ddc7;fill-opacity:1;" d="M 330.777344 221.3125 L 275.617188 221.3125 L 275.617188 153.65625 L 330.777344 153.65625 Z M 330.777344 221.3125 "/></g></g><g clip-rule="nonzero" clip-path="url(#759cc3050e)"><g clip-rule="nonzero" clip-path="url(#6de66982b2)"><path style=" stroke:none;fill-rule:nonzero;fill:#2b5f56;fill-opacity:1;" d="M 318.402344 208.96875 L 288.011719 208.96875 L 288.011719 151.992188 L 318.402344 151.992188 Z M 318.402344 208.96875 "/></g></g><g clip-rule="nonzero" clip-path="url(#3d681a7738)"><path style=" stroke:none;fill-rule:nonzero;fill:#2b5f56;fill-opacity:1;" d="M 304.613281 151.96875 L 333.613281 151.96875 L 333.613281 221.292969 L 304.613281 221.292969 Z M 304.613281 151.96875 "/></g><g clip-rule="nonzero" clip-path="url(#95baf15871)"><path style=" stroke:none;fill-rule:nonzero;fill:#f2ddc7;fill-opacity:1;" d="M 317.457031 221.3125 L 317.457031 153.632812 L 329.839844 153.632812 L 329.839844 221.3125 Z M 317.457031 221.3125 "/></g><g clip-rule="nonzero" clip-path="url(#4dd1e1fe13)"><path style=" stroke:none;fill-rule:nonzero;fill:#2b5f56;fill-opacity:1;" d="M 0 151.96875 L 37.625 151.96875 L 37.625 223.105469 L 0 223.105469 Z M 0 151.96875 "/></g><g clip-rule="nonzero" clip-path="url(#88bc4db1a8)"><path style=" stroke:none;fill-rule:nonzero;fill:#2b5f56;fill-opacity:1;" d="M 337.375 151.113281 L 375 151.113281 L 375 222.25 L 337.375 222.25 Z M 337.375 151.113281 "/></g><g clip-rule="nonzero" clip-path="url(#aa77f66e04)"><g clip-rule="nonzero" clip-path="url(#a704ff3778)"><path style=" stroke:none;fill-rule:nonzero;fill:#f2ddc7;fill-opacity:1;" d="M 229.378906 180.359375 L 239.628906 180.359375 L 239.628906 192.933594 L 229.378906 192.933594 Z M 229.378906 180.359375 "/></g></g><path style=" stroke:none;fill-rule:nonzero;fill:#2b5f56;fill-opacity:1;" d="M 0 0 L 375 0 L 375 150 L 0 150 Z M 0 0 "/><path style=" stroke:none;fill-rule:nonzero;fill:#2b5f56;fill-opacity:1;" d="M 0 225 L 375 225 L 375 375 L 0 375 Z M 0 225 "/></g></svg>