<svg xmlns="http://www.w3.org/2000/svg" xmlns:xlink="http://www.w3.org/1999/xlink" width="500" zoomAndPan="magnify" viewBox="0 0 375 374.999991" height="500" preserveAspectRatio="xMidYMid meet" version="1.2"><defs><clipPath id="03d068559d"><path d="M 28.484375 153.652344 L 83.535156 153.652344 L 83.535156 192.695312 L 28.484375 192.695312 Z M 28.484375 153.652344 "/></clipPath><clipPath id="210ee6be89"><path d="M 65.203125 191.105469 C 62.390625 192.066406 59.179688 192.695312 56.035156 192.695312 C 52.890625 192.695312 49.863281 192.15625 47.074219 191.195312 C 47.015625 191.164062 46.957031 191.164062 46.894531 191.136719 C 36.421875 187.300781 28.710938 177.179688 28.5625 165.984375 L 28.5625 153.652344 L 83.535156 153.652344 L 83.535156 165.972656 C 83.386719 177.238281 75.792969 187.363281 65.203125 191.105469 Z M 65.203125 191.105469 "/></clipPath><clipPath id="859e57dad0"><path d="M 40.808594 151.964844 L 71.1875 151.964844 L 71.1875 181.3125 L 40.808594 181.3125 Z M 40.808594 151.964844 "/></clipPath><clipPath id="8dace1ac91"><path d="M 61.085938 180.4375 C 59.539062 180.96875 57.769531 181.3125 56.035156 181.3125 C 54.304688 181.3125 52.636719 181.015625 51.101562 180.488281 C 51.066406 180.472656 51.035156 180.472656 51 180.457031 C 45.230469 178.34375 40.980469 172.765625 40.902344 166.425781 L 40.902344 151.964844 L 71.1875 151.964844 L 71.1875 166.414062 C 71.105469 172.800781 66.921875 178.375 61.085938 180.4375 Z M 61.085938 180.4375 "/></clipPath><clipPath id="72e41f00d7"><path d="M 28.5625 152.8125 L 56.050781 152.8125 L 56.050781 194.859375 L 28.5625 194.859375 Z M 28.5625 152.8125 "/></clipPath><clipPath id="d3ef99e895"><path d="M 28.5625 181.320312 L 83.566406 181.320312 L 83.566406 221.320312 L 28.5625 221.320312 Z M 28.5625 181.320312 "/></clipPath><clipPath id="6e5b1776c2"><path d="M 46.898438 182.90625 C 49.707031 181.949219 52.921875 181.320312 56.066406 181.320312 C 59.210938 181.320312 62.238281 181.859375 65.023438 182.816406 C 65.085938 182.847656 65.144531 182.847656 65.203125 182.875 C 75.675781 186.710938 83.390625 196.835938 83.539062 208.050781 L 83.539062 221.320312 L 28.5625 221.320312 L 28.5625 208.0625 C 28.710938 196.773438 36.308594 186.652344 46.898438 182.90625 Z M 46.898438 182.90625 "/></clipPath><clipPath id="03da2748d7"><path d="M 40.90625 193.660156 L 71.195312 193.660156 L 71.195312 223.03125 L 40.90625 223.03125 Z M 40.90625 193.660156 "/></clipPath><clipPath id="6df45bb328"><path d="M 51.007812 194.535156 C 52.554688 194.007812 54.328125 193.660156 56.058594 193.660156 C 57.792969 193.660156 59.457031 193.957031 60.996094 194.484375 C 61.027344 194.503906 61.0625 194.503906 61.09375 194.519531 C 66.863281 196.632812 71.113281 202.207031 71.195312 208.550781 L 71.195312 223.03125 L 40.90625 223.03125 L 40.90625 208.5625 C 40.988281 202.175781 45.171875 196.597656 51.007812 194.535156 Z M 51.007812 194.535156 "/></clipPath><clipPath id="e63830d606"><path d="M 24.527344 181.320312 L 56.050781 181.320312 L 56.050781 223.03125 L 24.527344 223.03125 Z M 24.527344 181.320312 "/></clipPath><clipPath id="dc86110dcd"><path d="M 44.453125 153.652344 L 56.796875 153.652344 L 56.796875 221.3125 L 44.453125 221.3125 Z M 44.453125 153.652344 "/></clipPath><clipPath id="0957dc0d2f"><path d="M 137.757812 153.453125 L 192.734375 153.453125 L 192.734375 221.3125 L 137.757812 221.3125 Z M 137.757812 153.453125 "/></clipPath><clipPath id="8e8c0249fc"><path d="M 174.398438 219.726562 C 171.589844 220.683594 168.375 221.3125 165.230469 221.3125 C 162.085938 221.3125 159.058594 220.773438 156.269531 219.816406 C 156.210938 219.785156 156.152344 219.785156 156.09375 219.753906 C 145.621094 215.921875 137.90625 205.796875 137.757812 193.964844 L 137.757812 153.652344 L 192.734375 153.652344 L 192.734375 193.9375 C 192.585938 205.855469 184.988281 215.980469 174.398438 219.726562 Z M 174.398438 219.726562 "/></clipPath><clipPath id="5d14611819"><path d="M 150.097656 151.945312 L 180.386719 151.945312 L 180.386719 208.96875 L 150.097656 208.96875 Z M 150.097656 151.945312 "/></clipPath><clipPath id="8affda0133"><path d="M 170.285156 208.09375 C 168.734375 208.625 166.964844 208.96875 165.234375 208.96875 C 163.5 208.96875 161.832031 208.671875 160.296875 208.144531 C 160.265625 208.128906 160.230469 208.128906 160.199219 208.113281 C 154.429688 206 150.179688 200.421875 150.097656 193.464844 L 150.097656 151.960938 L 180.386719 151.960938 L 180.386719 193.433594 C 180.304688 200.457031 176.121094 206.03125 170.285156 208.09375 Z M 170.285156 208.09375 "/></clipPath><clipPath id="34b224c6f9"><path d="M 137.761719 151.96875 L 165.25 151.96875 L 165.25 221.320312 L 137.761719 221.320312 Z M 137.761719 151.96875 "/></clipPath><clipPath id="3a27dd695c"><path d="M 97.035156 153.449219 L 152.011719 153.449219 L 152.011719 221.3125 L 97.035156 221.3125 Z M 97.035156 153.449219 "/></clipPath><clipPath id="315d55210a"><path d="M 133.675781 219.722656 C 130.867188 220.683594 127.652344 221.3125 124.507812 221.3125 C 121.363281 221.3125 118.335938 220.773438 115.550781 219.8125 C 115.488281 219.78125 115.429688 219.78125 115.371094 219.753906 C 104.898438 215.917969 97.183594 205.796875 97.035156 193.964844 L 97.035156 153.648438 L 152.011719 153.648438 L 152.011719 193.933594 C 151.863281 205.855469 144.265625 215.980469 133.675781 219.722656 Z M 133.675781 219.722656 "/></clipPath><clipPath id="6a1573810c"><path d="M 109.375 151.941406 L 139.664062 151.941406 L 139.664062 208.96875 L 109.375 208.96875 Z M 109.375 151.941406 "/></clipPath><clipPath id="ec2615ccf6"><path d="M 129.5625 208.09375 C 128.015625 208.621094 126.242188 208.96875 124.511719 208.96875 C 122.777344 208.96875 121.109375 208.671875 119.574219 208.144531 C 119.542969 208.125 119.507812 208.125 119.476562 208.109375 C 113.707031 205.996094 109.457031 200.421875 109.375 193.464844 L 109.375 151.957031 L 139.664062 151.957031 L 139.664062 193.433594 C 139.582031 200.453125 135.398438 206.03125 129.5625 208.09375 Z M 129.5625 208.09375 "/></clipPath><clipPath id="5a204225da"><path d="M 206.234375 153.660156 L 261.210938 153.660156 L 261.210938 221.519531 L 206.234375 221.519531 Z M 206.234375 153.660156 "/></clipPath><clipPath id="621924e2e4"><path d="M 224.570312 155.246094 C 227.378906 154.289062 230.59375 153.660156 233.738281 153.660156 C 236.882812 153.660156 239.910156 154.199219 242.699219 155.15625 C 242.757812 155.1875 242.816406 155.1875 242.875 155.21875 C 253.347656 159.050781 261.0625 169.175781 261.210938 181.007812 L 261.210938 221.320312 L 206.234375 221.320312 L 206.234375 181.035156 C 206.382812 169.117188 213.980469 158.992188 224.570312 155.246094 Z M 224.570312 155.246094 "/></clipPath><clipPath id="6a4b2d328f"><path d="M 218.578125 166 L 248.867188 166 L 248.867188 223.144531 L 218.578125 223.144531 Z M 218.578125 166 "/></clipPath><clipPath id="ff4102f8db"><path d="M 228.679688 166.875 C 230.226562 166.347656 232 166 233.730469 166 C 235.464844 166 237.132812 166.300781 238.667969 166.828125 C 238.699219 166.84375 238.734375 166.84375 238.765625 166.859375 C 244.535156 168.972656 248.785156 174.550781 248.867188 181.507812 L 248.867188 223.03125 L 218.578125 223.03125 L 218.578125 181.539062 C 218.660156 174.515625 222.84375 168.9375 228.679688 166.875 Z M 228.679688 166.875 "/></clipPath><clipPath id="740cc7c83b"><path d="M 274.707031 153.453125 L 329.683594 153.453125 L 329.683594 221.3125 L 274.707031 221.3125 Z M 274.707031 153.453125 "/></clipPath><clipPath id="d803f77942"><path d="M 311.347656 219.726562 C 308.539062 220.683594 305.324219 221.3125 302.179688 221.3125 C 299.035156 221.3125 296.007812 220.773438 293.222656 219.816406 C 293.160156 219.785156 293.101562 219.785156 293.042969 219.753906 C 282.570312 215.921875 274.855469 205.796875 274.707031 193.964844 L 274.707031 153.652344 L 329.683594 153.652344 L 329.683594 193.9375 C 329.535156 205.855469 321.941406 215.980469 311.347656 219.726562 Z M 311.347656 219.726562 "/></clipPath><clipPath id="1ec3e37634"><path d="M 287.046875 151.945312 L 317.335938 151.945312 L 317.335938 208.96875 L 287.046875 208.96875 Z M 287.046875 151.945312 "/></clipPath><clipPath id="4672ffad82"><path d="M 307.234375 208.09375 C 305.6875 208.625 303.914062 208.96875 302.183594 208.96875 C 300.449219 208.96875 298.78125 208.671875 297.246094 208.144531 C 297.214844 208.128906 297.179688 208.128906 297.148438 208.113281 C 291.378906 206 287.128906 200.421875 287.046875 193.464844 L 287.046875 151.960938 L 317.335938 151.960938 L 317.335938 193.433594 C 317.253906 200.457031 313.070312 206.03125 307.234375 208.09375 Z M 307.234375 208.09375 "/></clipPath><clipPath id="c46ecc4e32"><path d="M 303.597656 151.96875 L 332.5 151.96875 L 332.5 221.320312 L 303.597656 221.320312 Z M 303.597656 151.96875 "/></clipPath><clipPath id="206488bc09"><path d="M 316.394531 153.652344 L 328.738281 153.652344 L 328.738281 221.316406 L 316.394531 221.316406 Z M 316.394531 153.652344 "/></clipPath><clipPath id="f76550e332"><path d="M 0 151.96875 L 37.5 151.96875 L 37.5 223.03125 L 0 223.03125 Z M 0 151.96875 "/></clipPath><clipPath id="0dc0a868f0"><path d="M 336.25 151.113281 L 373.75 151.113281 L 373.75 222.175781 L 336.25 222.175781 Z M 336.25 151.113281 "/></clipPath><clipPath id="2ad9091fdd"><path d="M 228.613281 181.214844 L 238.832031 181.214844 L 238.832031 193.824219 L 228.613281 193.824219 Z M 228.613281 181.214844 "/></clipPath><clipPath id="040e0d4a01"><path d="M 232.023438 181.507812 C 232.542969 181.328125 233.140625 181.214844 233.726562 181.214844 C 234.308594 181.214844 234.871094 181.3125 235.390625 181.492188 C 235.402344 181.496094 235.414062 181.496094 235.421875 181.503906 C 237.371094 182.214844 238.804688 184.097656 238.832031 186.292969 L 238.832031 193.785156 L 228.613281 193.785156 L 228.613281 186.300781 C 228.640625 184.085938 230.054688 182.203125 232.023438 181.507812 Z M 232.023438 181.507812 "/></clipPath></defs><g id="3baf608a85"><rect x="0" width="375" y="0" height="374.999991" style="fill:#ffffff;fill-opacity:1;stroke:none;"/><rect x="0" width="375" y="0" height="374.999991" style="fill:#f2ddc7;fill-opacity:1;stroke:none;"/><g clip-rule="nonzero" clip-path="url(#03d068559d)"><g clip-rule="nonzero" clip-path="url(#210ee6be89)"><path style=" stroke:none;fill-rule:nonzero;fill:#2b5f56;fill-opacity:1;" d="M 83.535156 192.695312 L 28.636719 192.695312 L 28.636719 153.652344 L 83.535156 153.652344 Z M 83.535156 192.695312 "/></g></g><g clip-rule="nonzero" clip-path="url(#859e57dad0)"><g clip-rule="nonzero" clip-path="url(#8dace1ac91)"><path style=" stroke:none;fill-rule:nonzero;fill:#f2ddc7;fill-opacity:1;" d="M 71.1875 181.3125 L 40.921875 181.3125 L 40.921875 151.964844 L 71.1875 151.964844 Z M 71.1875 181.3125 "/></g></g><g clip-rule="nonzero" clip-path="url(#72e41f00d7)"><path style=" stroke:none;fill-rule:nonzero;fill:#f2ddc7;fill-opacity:1;" d="M 28.5625 152.8125 L 56.050781 152.8125 L 56.050781 194.902344 L 28.5625 194.902344 Z M 28.5625 152.8125 "/></g><g clip-rule="nonzero" clip-path="url(#d3ef99e895)"><g clip-rule="nonzero" clip-path="url(#6e5b1776c2)"><path style=" stroke:none;fill-rule:nonzero;fill:#2b5f56;fill-opacity:1;" d="M 28.5625 181.320312 L 83.566406 181.320312 L 83.566406 221.320312 L 28.5625 221.320312 Z M 28.5625 181.320312 "/></g></g><g clip-rule="nonzero" clip-path="url(#03da2748d7)"><g clip-rule="nonzero" clip-path="url(#6df45bb328)"><path style=" stroke:none;fill-rule:nonzero;fill:#f2ddc7;fill-opacity:1;" d="M 40.90625 193.660156 L 71.195312 193.660156 L 71.195312 223.03125 L 40.90625 223.03125 Z M 40.90625 193.660156 "/></g></g><g clip-rule="nonzero" clip-path="url(#e63830d606)"><path style=" stroke:none;fill-rule:nonzero;fill:#f2ddc7;fill-opacity:1;" d="M 24.527344 181.320312 L 56.050781 181.320312 L 56.050781 223.0625 L 24.527344 223.0625 Z M 24.527344 181.320312 "/></g><g clip-rule="nonzero" clip-path="url(#dc86110dcd)"><path style=" stroke:none;fill-rule:nonzero;fill:#2b5f56;fill-opacity:1;" d="M 44.453125 221.3125 L 44.453125 153.664062 L 56.796875 153.664062 L 56.796875 221.3125 Z M 44.453125 221.3125 "/></g><g clip-rule="nonzero" clip-path="url(#0957dc0d2f)"><g clip-rule="nonzero" clip-path="url(#8e8c0249fc)"><path style=" stroke:none;fill-rule:nonzero;fill:#2b5f56;fill-opacity:1;" d="M 192.734375 221.3125 L 137.757812 221.3125 L 137.757812 153.667969 L 192.734375 153.667969 Z M 192.734375 221.3125 "/></g></g><g clip-rule="nonzero" clip-path="url(#5d14611819)"><g clip-rule="nonzero" clip-path="url(#8affda0133)"><path style=" stroke:none;fill-rule:nonzero;fill:#f2ddc7;fill-opacity:1;" d="M 180.386719 208.96875 L 150.097656 208.96875 L 150.097656 151.945312 L 180.386719 151.945312 Z M 180.386719 208.96875 "/></g></g><g clip-rule="nonzero" clip-path="url(#34b224c6f9)"><path style=" stroke:none;fill-rule:nonzero;fill:#f2ddc7;fill-opacity:1;" d="M 137.761719 151.96875 L 165.25 151.96875 L 165.25 221.332031 L 137.761719 221.332031 Z M 137.761719 151.96875 "/></g><g clip-rule="nonzero" clip-path="url(#3a27dd695c)"><g clip-rule="nonzero" clip-path="url(#315d55210a)"><path style=" stroke:none;fill-rule:nonzero;fill:#2b5f56;fill-opacity:1;" d="M 152.011719 221.3125 L 97.035156 221.3125 L 97.035156 153.664062 L 152.011719 153.664062 Z M 152.011719 221.3125 "/></g></g><g clip-rule="nonzero" clip-path="url(#6a1573810c)"><g clip-rule="nonzero" clip-path="url(#ec2615ccf6)"><path style=" stroke:none;fill-rule:nonzero;fill:#f2ddc7;fill-opacity:1;" d="M 139.664062 208.96875 L 109.375 208.96875 L 109.375 151.941406 L 139.664062 151.941406 Z M 139.664062 208.96875 "/></g></g><g clip-rule="nonzero" clip-path="url(#5a204225da)"><g clip-rule="nonzero" clip-path="url(#621924e2e4)"><path style=" stroke:none;fill-rule:nonzero;fill:#2b5f56;fill-opacity:1;" d="M 206.234375 153.660156 L 261.210938 153.660156 L 261.210938 221.304688 L 206.234375 221.304688 Z M 206.234375 153.660156 "/></g></g><g clip-rule="nonzero" clip-path="url(#6a4b2d328f)"><g clip-rule="nonzero" clip-path="url(#ff4102f8db)"><path style=" stroke:none;fill-rule:nonzero;fill:#f2ddc7;fill-opacity:1;" d="M 218.578125 166 L 248.867188 166 L 248.867188 223.027344 L 218.578125 223.027344 Z M 218.578125 166 "/></g></g><g clip-rule="nonzero" clip-path="url(#740cc7c83b)"><g clip-rule="nonzero" clip-path="url(#d803f77942)"><path style=" stroke:none;fill-rule:nonzero;fill:#2b5f56;fill-opacity:1;" d="M 329.683594 221.3125 L 274.707031 221.3125 L 274.707031 153.667969 L 329.683594 153.667969 Z M 329.683594 221.3125 "/></g></g><g clip-rule="nonzero" clip-path="url(#1ec3e37634)"><g clip-rule="nonzero" clip-path="url(#4672ffad82)"><path style=" stroke:none;fill-rule:nonzero;fill:#f2ddc7;fill-opacity:1;" d="M 317.335938 208.96875 L 287.046875 208.96875 L 287.046875 151.945312 L 317.335938 151.945312 Z M 317.335938 208.96875 "/></g></g><g clip-rule="nonzero" clip-path="url(#c46ecc4e32)"><path style=" stroke:none;fill-rule:nonzero;fill:#f2ddc7;fill-opacity:1;" d="M 303.597656 151.96875 L 332.5 151.96875 L 332.5 221.289062 L 303.597656 221.289062 Z M 303.597656 151.96875 "/></g><g clip-rule="nonzero" clip-path="url(#206488bc09)"><path style=" stroke:none;fill-rule:nonzero;fill:#2b5f56;fill-opacity:1;" d="M 316.394531 221.316406 L 316.394531 153.667969 L 328.738281 153.667969 L 328.738281 221.316406 Z M 316.394531 221.316406 "/></g><g clip-rule="nonzero" clip-path="url(#f76550e332)"><path style=" stroke:none;fill-rule:nonzero;fill:#f2ddc7;fill-opacity:1;" d="M 0 151.96875 L 37.5 151.96875 L 37.5 223.011719 L 0 223.011719 Z M 0 151.96875 "/></g><g clip-rule="nonzero" clip-path="url(#0dc0a868f0)"><path style=" stroke:none;fill-rule:nonzero;fill:#f2ddc7;fill-opacity:1;" d="M 336.25 151.113281 L 373.75 151.113281 L 373.75 222.160156 L 336.25 222.160156 Z M 336.25 151.113281 "/></g><g clip-rule="nonzero" clip-path="url(#2ad9091fdd)"><g clip-rule="nonzero" clip-path="url(#040e0d4a01)"><path style=" stroke:none;fill-rule:nonzero;fill:#2b5f56;fill-opacity:1;" d="M 228.613281 181.214844 L 238.832031 181.214844 L 238.832031 193.785156 L 228.613281 193.785156 Z M 228.613281 181.214844 "/></g></g></g></svg>